<svg xmlns="http://www.w3.org/2000/svg" viewBox="0 0 16 16"><title>32_24_20_16_px_12-06-2018</title><g id="_16x16_color" data-name="16x16 color"><path d="M16,4V1a1.00294,1.00294,0,0,0-1-1H4A1,1,0,0,0,3,1V4L9.49908,5.379Z" fill="#41a5ee"/><polygon points="15.999 4 2.999 4 2.999 8 9.5 9.168 15.999 8 15.999 4" fill="#2b7cd3"/><polygon points="16 8 3 8 3 12 9.499 13 16 12 16 8" fill="#185abd"/><path d="M3,12v3a1.003,1.003,0,0,0,1,1H15a1,1,0,0,0,1-1V12Z" fill="#103f91"/><path d="M10.00014,4.00342,3,4l.00192,10H8.99977A2.00037,2.00037,0,0,0,11,11.99951V5.00342A.99994.99994,0,0,0,10.00014,4.00342Z" opacity="0.5"/><rect id="Back_Plate" data-name="Back Plate" y="3" width="10" height="10" rx="1" ry="1" fill="#185abd"/><path d="M3.35136,9.53975q.02553.21339.03346.37238h.01969q.0118-.15062.04528-.364t.065-.35984L4.42816,5H5.6093l.94491,4.12552a6.33281,6.33281,0,0,1,.11812.77825h.01574a6.2953,6.2953,0,0,1,.09843-.75314L7.54243,5H8.61727L7.29439,11H6.03845l-.9016-3.9749q-.03943-.17148-.08859-.44769t-.061-.40168H4.97149q-.01583.14658-.061.43515t-.07284.42678L3.99114,11H2.71551L1.38083,5H2.47535l.82286,4.19665Q3.32574,9.32643,3.35136,9.53975Z" fill="#fff"/><rect width="16" height="16" fill="none"/></g></svg>